<mxfile host="app.diagrams.net" modified="2024-01-22T12:31:16.111Z" agent="Mozilla/5.0 (Windows NT 10.0; Win64; x64) AppleWebKit/537.36 (KHTML, like Gecko) Chrome/120.0.0.0 Safari/537.36" etag="XEZqvU_e2f6rX8ZxpqJo" version="22.1.21" type="github">
  <diagram name="Page-1" id="0wFrSxKKMknX827UA1au">
    <mxGraphModel dx="1050" dy="522" grid="1" gridSize="10" guides="1" tooltips="1" connect="1" arrows="1" fold="1" page="1" pageScale="1" pageWidth="850" pageHeight="1100" math="0" shadow="0">
      <root>
        <mxCell id="0" />
        <mxCell id="1" parent="0" />
        <mxCell id="xtBv_NrNdRKm0Ncn4--s-3" value="" style="ellipse;whiteSpace=wrap;html=1;aspect=fixed;" vertex="1" parent="1">
          <mxGeometry x="380" y="70" width="420" height="420" as="geometry" />
        </mxCell>
        <mxCell id="xtBv_NrNdRKm0Ncn4--s-4" value="Internal CPU Interconnection" style="ellipse;whiteSpace=wrap;html=1;aspect=fixed;" vertex="1" parent="1">
          <mxGeometry x="505" y="195" width="170" height="170" as="geometry" />
        </mxCell>
        <mxCell id="xtBv_NrNdRKm0Ncn4--s-5" value="Control Unit" style="ellipse;whiteSpace=wrap;html=1;aspect=fixed;" vertex="1" parent="1">
          <mxGeometry x="545" y="333" width="90" height="90" as="geometry" />
        </mxCell>
        <mxCell id="xtBv_NrNdRKm0Ncn4--s-2" value="Register" style="ellipse;whiteSpace=wrap;html=1;aspect=fixed;" vertex="1" parent="1">
          <mxGeometry x="470" y="160" width="90" height="90" as="geometry" />
        </mxCell>
        <mxCell id="xtBv_NrNdRKm0Ncn4--s-1" value="Arithmetic and Login unit" style="ellipse;whiteSpace=wrap;html=1;aspect=fixed;" vertex="1" parent="1">
          <mxGeometry x="612" y="160" width="90" height="90" as="geometry" />
        </mxCell>
        <mxCell id="xtBv_NrNdRKm0Ncn4--s-11" value="CPU" style="text;html=1;strokeColor=none;fillColor=none;align=center;verticalAlign=middle;whiteSpace=wrap;rounded=0;fontSize=25;" vertex="1" parent="1">
          <mxGeometry x="552" y="104" width="70" height="30" as="geometry" />
        </mxCell>
        <mxCell id="xtBv_NrNdRKm0Ncn4--s-12" value="" style="ellipse;whiteSpace=wrap;html=1;aspect=fixed;" vertex="1" parent="1">
          <mxGeometry x="30" y="220" width="130" height="130" as="geometry" />
        </mxCell>
        <mxCell id="xtBv_NrNdRKm0Ncn4--s-13" value="CPU" style="ellipse;whiteSpace=wrap;html=1;aspect=fixed;" vertex="1" parent="1">
          <mxGeometry x="91" y="250" width="60" height="60" as="geometry" />
        </mxCell>
        <mxCell id="xtBv_NrNdRKm0Ncn4--s-14" value="Computer" style="text;html=1;strokeColor=none;fillColor=none;align=center;verticalAlign=middle;whiteSpace=wrap;rounded=0;" vertex="1" parent="1">
          <mxGeometry x="65" y="220" width="60" height="30" as="geometry" />
        </mxCell>
        <mxCell id="xtBv_NrNdRKm0Ncn4--s-15" value="" style="endArrow=none;html=1;rounded=0;entryX=0.279;entryY=0.044;entryDx=0;entryDy=0;entryPerimeter=0;" edge="1" parent="1" target="xtBv_NrNdRKm0Ncn4--s-3">
          <mxGeometry width="50" height="50" relative="1" as="geometry">
            <mxPoint x="110" y="250" as="sourcePoint" />
            <mxPoint x="160" y="200" as="targetPoint" />
          </mxGeometry>
        </mxCell>
        <mxCell id="xtBv_NrNdRKm0Ncn4--s-16" value="" style="endArrow=none;html=1;rounded=0;entryX=0.26;entryY=0.941;entryDx=0;entryDy=0;entryPerimeter=0;" edge="1" parent="1" target="xtBv_NrNdRKm0Ncn4--s-3">
          <mxGeometry width="50" height="50" relative="1" as="geometry">
            <mxPoint x="110" y="310" as="sourcePoint" />
            <mxPoint x="160" y="260" as="targetPoint" />
          </mxGeometry>
        </mxCell>
      </root>
    </mxGraphModel>
  </diagram>
</mxfile>
